<svg id="visual" viewBox="0 0 1000 100" width="1000" height="100" xmlns="http://www.w3.org/2000/svg" xmlns:xlink="http://www.w3.org/1999/xlink" version="1.1"><path d="M0 57L9.3 54.7C18.7 52.3 37.3 47.7 55.8 45.7C74.3 43.7 92.7 44.3 111.2 46.5C129.7 48.7 148.3 52.3 166.8 51.7C185.3 51 203.7 46 222.2 43C240.7 40 259.3 39 277.8 40C296.3 41 314.7 44 333.2 47.2C351.7 50.3 370.3 53.7 388.8 57.2C407.3 60.7 425.7 64.3 444.2 62.3C462.7 60.3 481.3 52.7 500 49.5C518.7 46.3 537.3 47.7 555.8 48.2C574.3 48.7 592.7 48.3 611.2 50.8C629.7 53.3 648.3 58.7 666.8 58.5C685.3 58.3 703.7 52.7 722.2 53.3C740.7 54 759.3 61 777.8 60.8C796.3 60.7 814.7 53.3 833.2 52.8C851.7 52.3 870.3 58.7 888.8 59.8C907.3 61 925.7 57 944.2 56C962.7 55 981.3 57 990.7 58L1000 59L1000 0L990.7 0C981.3 0 962.7 0 944.2 0C925.7 0 907.3 0 888.8 0C870.3 0 851.7 0 833.2 0C814.7 0 796.3 0 777.8 0C759.3 0 740.7 0 722.2 0C703.7 0 685.3 0 666.8 0C648.3 0 629.7 0 611.2 0C592.7 0 574.3 0 555.8 0C537.3 0 518.7 0 500 0C481.3 0 462.7 0 444.2 0C425.7 0 407.3 0 388.8 0C370.3 0 351.7 0 333.2 0C314.7 0 296.3 0 277.8 0C259.3 0 240.7 0 222.2 0C203.7 0 185.3 0 166.8 0C148.3 0 129.7 0 111.2 0C92.7 0 74.3 0 55.8 0C37.3 0 18.7 0 9.3 0L0 0Z" fill="#007259"></path><path d="M0 57L9.3 55.7C18.7 54.3 37.3 51.7 55.8 49.8C74.3 48 92.7 47 111.2 46.3C129.7 45.7 148.3 45.3 166.8 47.5C185.3 49.7 203.7 54.3 222.2 52.5C240.7 50.7 259.3 42.3 277.8 41C296.3 39.7 314.7 45.3 333.2 49.2C351.7 53 370.3 55 388.8 53.2C407.3 51.3 425.7 45.7 444.2 42.5C462.7 39.3 481.3 38.7 500 38.3C518.7 38 537.3 38 555.8 37.5C574.3 37 592.7 36 611.2 39.3C629.7 42.7 648.3 50.3 666.8 54.7C685.3 59 703.7 60 722.2 59.8C740.7 59.7 759.3 58.3 777.8 56.8C796.3 55.3 814.7 53.7 833.2 53C851.7 52.3 870.3 52.7 888.8 50.5C907.3 48.3 925.7 43.7 944.2 41.8C962.7 40 981.3 41 990.7 41.5L1000 42L1000 0L990.7 0C981.3 0 962.7 0 944.2 0C925.7 0 907.3 0 888.8 0C870.3 0 851.7 0 833.2 0C814.7 0 796.3 0 777.8 0C759.3 0 740.7 0 722.2 0C703.7 0 685.3 0 666.8 0C648.3 0 629.7 0 611.2 0C592.7 0 574.3 0 555.8 0C537.3 0 518.7 0 500 0C481.3 0 462.7 0 444.2 0C425.7 0 407.3 0 388.8 0C370.3 0 351.7 0 333.2 0C314.7 0 296.3 0 277.8 0C259.3 0 240.7 0 222.2 0C203.7 0 185.3 0 166.8 0C148.3 0 129.7 0 111.2 0C92.7 0 74.3 0 55.8 0C37.3 0 18.7 0 9.3 0L0 0Z" fill="#267a63"></path><path d="M0 38L9.3 39.7C18.7 41.3 37.3 44.7 55.8 44.3C74.3 44 92.7 40 111.2 40.8C129.7 41.7 148.3 47.3 166.8 47.7C185.3 48 203.7 43 222.2 39.7C240.7 36.3 259.3 34.7 277.8 34.8C296.3 35 314.7 37 333.2 37C351.7 37 370.3 35 388.8 33.7C407.3 32.3 425.7 31.7 444.2 32.2C462.7 32.7 481.3 34.3 500 38.7C518.7 43 537.3 50 555.8 50.8C574.3 51.7 592.7 46.3 611.2 45.2C629.7 44 648.3 47 666.8 45.3C685.3 43.7 703.7 37.3 722.2 34.7C740.7 32 759.3 33 777.8 36.3C796.3 39.7 814.7 45.3 833.2 45.5C851.7 45.7 870.3 40.3 888.8 36.8C907.3 33.3 925.7 31.7 944.2 35C962.7 38.3 981.3 46.7 990.7 50.8L1000 55L1000 0L990.7 0C981.3 0 962.7 0 944.2 0C925.7 0 907.3 0 888.8 0C870.3 0 851.7 0 833.2 0C814.7 0 796.3 0 777.8 0C759.3 0 740.7 0 722.2 0C703.7 0 685.3 0 666.8 0C648.3 0 629.7 0 611.2 0C592.7 0 574.3 0 555.8 0C537.3 0 518.7 0 500 0C481.3 0 462.7 0 444.2 0C425.7 0 407.3 0 388.8 0C370.3 0 351.7 0 333.2 0C314.7 0 296.3 0 277.8 0C259.3 0 240.7 0 222.2 0C203.7 0 185.3 0 166.8 0C148.3 0 129.7 0 111.2 0C92.7 0 74.3 0 55.8 0C37.3 0 18.7 0 9.3 0L0 0Z" fill="#3b826c"></path><path d="M0 44L9.3 41.8C18.7 39.7 37.3 35.3 55.8 32.8C74.3 30.3 92.7 29.7 111.2 29.8C129.7 30 148.3 31 166.8 33.5C185.3 36 203.7 40 222.2 40.5C240.7 41 259.3 38 277.8 38.8C296.3 39.7 314.7 44.3 333.2 44C351.7 43.7 370.3 38.3 388.8 37.8C407.3 37.3 425.7 41.7 444.2 44.7C462.7 47.7 481.3 49.3 500 47.5C518.7 45.7 537.3 40.3 555.8 37C574.3 33.7 592.7 32.3 611.2 33.5C629.7 34.7 648.3 38.3 666.8 41.8C685.3 45.3 703.7 48.7 722.2 47.2C740.7 45.7 759.3 39.3 777.8 37.7C796.3 36 814.7 39 833.2 41.7C851.7 44.3 870.3 46.7 888.8 48.2C907.3 49.7 925.7 50.3 944.2 47C962.7 43.7 981.3 36.3 990.7 32.7L1000 29L1000 0L990.7 0C981.3 0 962.7 0 944.2 0C925.7 0 907.3 0 888.8 0C870.3 0 851.7 0 833.2 0C814.7 0 796.3 0 777.8 0C759.3 0 740.7 0 722.2 0C703.7 0 685.3 0 666.8 0C648.3 0 629.7 0 611.2 0C592.7 0 574.3 0 555.8 0C537.3 0 518.7 0 500 0C481.3 0 462.7 0 444.2 0C425.7 0 407.3 0 388.8 0C370.3 0 351.7 0 333.2 0C314.7 0 296.3 0 277.8 0C259.3 0 240.7 0 222.2 0C203.7 0 185.3 0 166.8 0C148.3 0 129.7 0 111.2 0C92.7 0 74.3 0 55.8 0C37.3 0 18.7 0 9.3 0L0 0Z" fill="#4d8b76"></path><path d="M0 37L9.3 38.7C18.7 40.3 37.3 43.7 55.8 41.7C74.3 39.7 92.7 32.3 111.2 32C129.7 31.7 148.3 38.3 166.8 38.7C185.3 39 203.7 33 222.2 31.5C240.7 30 259.3 33 277.8 32.5C296.3 32 314.7 28 333.2 29.5C351.7 31 370.3 38 388.8 40.5C407.3 43 425.7 41 444.2 39.3C462.7 37.7 481.3 36.3 500 37.7C518.7 39 537.3 43 555.8 43.2C574.3 43.3 592.7 39.7 611.2 38.2C629.7 36.7 648.3 37.3 666.8 38.3C685.3 39.3 703.7 40.7 722.2 39.8C740.7 39 759.3 36 777.8 33.7C796.3 31.3 814.7 29.7 833.2 29.5C851.7 29.3 870.3 30.7 888.8 32C907.3 33.3 925.7 34.7 944.2 34.7C962.7 34.7 981.3 33.3 990.7 32.7L1000 32L1000 0L990.7 0C981.3 0 962.7 0 944.2 0C925.7 0 907.3 0 888.8 0C870.3 0 851.7 0 833.2 0C814.7 0 796.3 0 777.8 0C759.3 0 740.7 0 722.2 0C703.7 0 685.3 0 666.8 0C648.3 0 629.7 0 611.2 0C592.7 0 574.3 0 555.8 0C537.3 0 518.7 0 500 0C481.3 0 462.7 0 444.2 0C425.7 0 407.3 0 388.8 0C370.3 0 351.7 0 333.2 0C314.7 0 296.3 0 277.8 0C259.3 0 240.7 0 222.2 0C203.7 0 185.3 0 166.8 0C148.3 0 129.7 0 111.2 0C92.7 0 74.3 0 55.8 0C37.3 0 18.7 0 9.3 0L0 0Z" fill="#5e9380"></path><path d="M0 22L9.3 25C18.7 28 37.3 34 55.8 37.2C74.3 40.3 92.7 40.7 111.2 38.2C129.7 35.7 148.3 30.3 166.8 27.3C185.3 24.3 203.7 23.7 222.2 23.3C240.7 23 259.3 23 277.8 23.3C296.3 23.7 314.7 24.3 333.2 26.5C351.7 28.7 370.3 32.3 388.8 33.2C407.3 34 425.7 32 444.2 30.7C462.7 29.3 481.3 28.7 500 29C518.7 29.3 537.3 30.7 555.8 31C574.3 31.3 592.7 30.7 611.2 31.2C629.7 31.7 648.3 33.3 666.8 33.5C685.3 33.7 703.7 32.3 722.2 32.8C740.7 33.3 759.3 35.7 777.8 35C796.3 34.3 814.7 30.7 833.2 29.2C851.7 27.7 870.3 28.3 888.8 29C907.3 29.7 925.7 30.3 944.2 29C962.7 27.7 981.3 24.3 990.7 22.7L1000 21L1000 0L990.7 0C981.3 0 962.7 0 944.2 0C925.7 0 907.3 0 888.8 0C870.3 0 851.7 0 833.2 0C814.7 0 796.3 0 777.8 0C759.3 0 740.7 0 722.2 0C703.7 0 685.3 0 666.8 0C648.3 0 629.7 0 611.2 0C592.7 0 574.3 0 555.8 0C537.3 0 518.7 0 500 0C481.3 0 462.7 0 444.2 0C425.7 0 407.3 0 388.8 0C370.3 0 351.7 0 333.2 0C314.7 0 296.3 0 277.8 0C259.3 0 240.7 0 222.2 0C203.7 0 185.3 0 166.8 0C148.3 0 129.7 0 111.2 0C92.7 0 74.3 0 55.8 0C37.3 0 18.7 0 9.3 0L0 0Z" fill="#6e9b8b"></path><path d="M0 25L9.3 25.8C18.7 26.7 37.3 28.3 55.8 28.2C74.3 28 92.7 26 111.2 25.7C129.7 25.3 148.3 26.7 166.8 27.8C185.3 29 203.7 30 222.2 29.5C240.7 29 259.3 27 277.8 27.2C296.3 27.3 314.7 29.7 333.2 30.7C351.7 31.7 370.3 31.3 388.8 29.7C407.3 28 425.7 25 444.2 25C462.7 25 481.3 28 500 29.3C518.7 30.7 537.3 30.3 555.8 29.7C574.3 29 592.7 28 611.2 28.7C629.7 29.3 648.3 31.7 666.8 32.2C685.3 32.7 703.7 31.3 722.2 31C740.7 30.7 759.3 31.3 777.8 31.3C796.3 31.3 814.7 30.7 833.2 30C851.7 29.3 870.3 28.7 888.8 28.3C907.3 28 925.7 28 944.2 27.5C962.7 27 981.3 26 990.7 25.5L1000 25L1000 0L990.7 0C981.3 0 962.7 0 944.2 0C925.7 0 907.3 0 888.8 0C870.3 0 851.7 0 833.2 0C814.7 0 796.3 0 777.8 0C759.3 0 740.7 0 722.2 0C703.7 0 685.3 0 666.8 0C648.3 0 629.7 0 611.2 0C592.7 0 574.3 0 555.8 0C537.3 0 518.7 0 500 0C481.3 0 462.7 0 444.2 0C425.7 0 407.3 0 388.8 0C370.3 0 351.7 0 333.2 0C314.7 0 296.3 0 277.8 0C259.3 0 240.7 0 222.2 0C203.7 0 185.3 0 166.8 0C148.3 0 129.7 0 111.2 0C92.7 0 74.3 0 55.8 0C37.3 0 18.7 0 9.3 0L0 0Z" fill="#7ea395"></path><path d="M0 26L9.3 25.5C18.7 25 37.3 24 55.8 24.3C74.3 24.7 92.7 26.3 111.2 27.3C129.7 28.3 148.3 28.7 166.8 26.5C185.3 24.3 203.7 19.7 222.2 17.5C240.7 15.3 259.3 15.7 277.8 16.2C296.3 16.7 314.7 17.3 333.2 17.3C351.7 17.3 370.3 16.7 388.8 18.5C407.3 20.3 425.7 24.7 444.2 25.3C462.7 26 481.3 23 500 21.7C518.7 20.3 537.3 20.7 555.8 20.5C574.3 20.3 592.7 19.7 611.2 21C629.7 22.3 648.3 25.7 666.8 26.3C685.3 27 703.7 25 722.2 24C740.7 23 759.3 23 777.8 22.8C796.3 22.7 814.7 22.3 833.2 22.8C851.7 23.3 870.3 24.7 888.8 24C907.3 23.3 925.7 20.7 944.2 20.2C962.7 19.7 981.3 21.3 990.7 22.2L1000 23L1000 0L990.7 0C981.3 0 962.7 0 944.2 0C925.7 0 907.3 0 888.8 0C870.3 0 851.7 0 833.2 0C814.7 0 796.3 0 777.8 0C759.3 0 740.7 0 722.2 0C703.7 0 685.3 0 666.8 0C648.3 0 629.7 0 611.2 0C592.7 0 574.3 0 555.8 0C537.3 0 518.7 0 500 0C481.3 0 462.7 0 444.2 0C425.7 0 407.3 0 388.8 0C370.3 0 351.7 0 333.2 0C314.7 0 296.3 0 277.8 0C259.3 0 240.7 0 222.2 0C203.7 0 185.3 0 166.8 0C148.3 0 129.7 0 111.2 0C92.7 0 74.3 0 55.8 0C37.3 0 18.7 0 9.3 0L0 0Z" fill="#8eaba0"></path><path d="M0 15L9.3 15.3C18.7 15.7 37.3 16.3 55.8 16C74.3 15.7 92.7 14.3 111.2 14.3C129.7 14.3 148.3 15.7 166.8 17.7C185.3 19.7 203.7 22.3 222.2 23.2C240.7 24 259.3 23 277.8 21.3C296.3 19.7 314.7 17.3 333.2 15.7C351.7 14 370.3 13 388.8 13.3C407.3 13.7 425.7 15.3 444.2 16C462.7 16.7 481.3 16.3 500 17.3C518.7 18.3 537.3 20.7 555.8 21.2C574.3 21.7 592.7 20.3 611.2 19C629.7 17.7 648.3 16.3 666.8 15.2C685.3 14 703.7 13 722.2 13.5C740.7 14 759.3 16 777.8 16.5C796.3 17 814.7 16 833.2 15C851.7 14 870.3 13 888.8 13.2C907.3 13.3 925.7 14.7 944.2 15C962.7 15.3 981.3 14.7 990.7 14.3L1000 14L1000 0L990.7 0C981.3 0 962.7 0 944.2 0C925.7 0 907.3 0 888.8 0C870.3 0 851.7 0 833.2 0C814.7 0 796.3 0 777.8 0C759.3 0 740.7 0 722.2 0C703.7 0 685.3 0 666.8 0C648.3 0 629.7 0 611.2 0C592.7 0 574.3 0 555.8 0C537.3 0 518.7 0 500 0C481.3 0 462.7 0 444.2 0C425.7 0 407.3 0 388.8 0C370.3 0 351.7 0 333.2 0C314.7 0 296.3 0 277.8 0C259.3 0 240.7 0 222.2 0C203.7 0 185.3 0 166.8 0C148.3 0 129.7 0 111.2 0C92.7 0 74.3 0 55.8 0C37.3 0 18.7 0 9.3 0L0 0Z" fill="#9db3ab"></path><path d="M0 9L9.3 9C18.7 9 37.3 9 55.8 9C74.3 9 92.7 9 111.2 8.8C129.7 8.7 148.3 8.3 166.8 8.5C185.3 8.7 203.7 9.3 222.2 10C240.7 10.7 259.3 11.3 277.8 12C296.3 12.7 314.7 13.3 333.2 14.3C351.7 15.3 370.3 16.7 388.8 16.7C407.3 16.7 425.7 15.3 444.2 14C462.7 12.7 481.3 11.3 500 12.2C518.7 13 537.3 16 555.8 16.5C574.3 17 592.7 15 611.2 14.7C629.7 14.3 648.3 15.7 666.8 15.5C685.3 15.3 703.7 13.7 722.2 13.2C740.7 12.7 759.3 13.3 777.8 13.3C796.3 13.3 814.7 12.7 833.2 13C851.7 13.3 870.3 14.7 888.8 15.2C907.3 15.7 925.7 15.3 944.2 15.5C962.7 15.7 981.3 16.3 990.7 16.7L1000 17L1000 0L990.7 0C981.3 0 962.7 0 944.2 0C925.7 0 907.3 0 888.8 0C870.3 0 851.7 0 833.2 0C814.7 0 796.3 0 777.8 0C759.3 0 740.7 0 722.2 0C703.7 0 685.3 0 666.8 0C648.3 0 629.7 0 611.2 0C592.7 0 574.3 0 555.8 0C537.3 0 518.7 0 500 0C481.3 0 462.7 0 444.2 0C425.7 0 407.3 0 388.8 0C370.3 0 351.7 0 333.2 0C314.7 0 296.3 0 277.8 0C259.3 0 240.7 0 222.2 0C203.7 0 185.3 0 166.8 0C148.3 0 129.7 0 111.2 0C92.7 0 74.3 0 55.8 0C37.3 0 18.7 0 9.3 0L0 0Z" fill="#adbcb6"></path><path d="M0 12L9.3 11.3C18.7 10.7 37.3 9.3 55.8 9.2C74.3 9 92.7 10 111.2 9.7C129.7 9.3 148.3 7.7 166.8 7.7C185.3 7.7 203.7 9.3 222.2 9.7C240.7 10 259.3 9 277.8 9.2C296.3 9.3 314.7 10.7 333.2 10.7C351.7 10.7 370.3 9.3 388.8 8.7C407.3 8 425.7 8 444.2 7.5C462.7 7 481.3 6 500 6C518.7 6 537.3 7 555.8 8.3C574.3 9.7 592.7 11.3 611.2 11.3C629.7 11.3 648.3 9.7 666.8 9.3C685.3 9 703.7 10 722.2 10.3C740.7 10.7 759.3 10.3 777.8 10.5C796.3 10.7 814.7 11.3 833.2 11.2C851.7 11 870.3 10 888.8 9.5C907.3 9 925.7 9 944.2 9.8C962.7 10.7 981.3 12.3 990.7 13.2L1000 14L1000 0L990.7 0C981.3 0 962.7 0 944.2 0C925.7 0 907.3 0 888.8 0C870.3 0 851.7 0 833.2 0C814.7 0 796.3 0 777.8 0C759.3 0 740.7 0 722.2 0C703.7 0 685.3 0 666.8 0C648.3 0 629.7 0 611.2 0C592.7 0 574.3 0 555.8 0C537.3 0 518.7 0 500 0C481.3 0 462.7 0 444.2 0C425.7 0 407.3 0 388.8 0C370.3 0 351.7 0 333.2 0C314.7 0 296.3 0 277.8 0C259.3 0 240.7 0 222.2 0C203.7 0 185.3 0 166.8 0C148.3 0 129.7 0 111.2 0C92.7 0 74.3 0 55.8 0C37.3 0 18.7 0 9.3 0L0 0Z" fill="#bcc4c1"></path><path d="M0 6L9.3 5.3C18.7 4.7 37.3 3.3 55.8 3C74.3 2.7 92.7 3.3 111.2 3.8C129.7 4.3 148.3 4.7 166.8 4.5C185.3 4.3 203.7 3.7 222.2 3.3C240.7 3 259.3 3 277.8 2.8C296.3 2.7 314.7 2.3 333.2 2.5C351.7 2.7 370.3 3.3 388.8 3.7C407.3 4 425.7 4 444.2 3.7C462.7 3.3 481.3 2.7 500 3C518.7 3.3 537.3 4.7 555.8 4.7C574.3 4.7 592.7 3.3 611.2 2.7C629.7 2 648.3 2 666.8 2.7C685.3 3.3 703.7 4.7 722.2 4.8C740.7 5 759.3 4 777.8 3.5C796.3 3 814.7 3 833.2 3.2C851.7 3.3 870.3 3.7 888.8 3.7C907.3 3.7 925.7 3.3 944.2 3C962.7 2.7 981.3 2.3 990.7 2.2L1000 2L1000 0L990.7 0C981.3 0 962.7 0 944.2 0C925.7 0 907.3 0 888.8 0C870.3 0 851.7 0 833.2 0C814.7 0 796.3 0 777.8 0C759.3 0 740.7 0 722.2 0C703.7 0 685.3 0 666.8 0C648.3 0 629.7 0 611.2 0C592.7 0 574.3 0 555.8 0C537.3 0 518.7 0 500 0C481.3 0 462.7 0 444.2 0C425.7 0 407.3 0 388.8 0C370.3 0 351.7 0 333.2 0C314.7 0 296.3 0 277.8 0C259.3 0 240.7 0 222.2 0C203.7 0 185.3 0 166.8 0C148.3 0 129.7 0 111.2 0C92.7 0 74.3 0 55.8 0C37.3 0 18.7 0 9.3 0L0 0Z" fill="#cccccc"></path></svg>